<?xml version="1.0" standalone="no"?>
<!DOCTYPE svg PUBLIC "-//W3C//DTD SVG 20010904//EN"
 "http://www.w3.org/TR/2001/REC-SVG-20010904/DTD/svg10.dtd">
<svg version="1.0" xmlns="http://www.w3.org/2000/svg"
 width="1067.000000pt" height="1067.000000pt" viewBox="0 0 1067.000000 1067.000000"
 preserveAspectRatio="xMidYMid meet">
<metadata>
Created by potrace 1.14, written by Peter Selinger 2001-2017
</metadata>
<g transform="translate(0.000000,1067.000000) scale(0.100000,-0.100000)"
fill="#000000" stroke="none">
<path d="M3088 9989 l-3 -681 -210 361 c-115 199 -213 361 -217 361 -12 0
-438 -231 -438 -238 0 -3 96 -169 213 -369 l212 -363 418 0 417 0 0 805 0 805
-195 0 -195 0 -2 -681z"/>
<path d="M4580 10311 l0 -280 -119 62 c-66 34 -121 60 -124 57 -3 -3 -68 -131
-145 -285 l-141 -280 0 383 -1 382 -190 0 -190 0 0 -645 0 -645 343 0 344 0
111 228 111 227 1 -227 0 -228 230 0 230 0 0 765 0 765 -230 0 -230 0 0 -279z"/>
<path d="M6070 10190 c0 -126 -2 -230 -5 -230 -2 0 -38 17 -79 37 -42 20 -77
35 -80 33 -4 -6 -353 -684 -440 -857 l-56 -113 258 0 257 0 72 143 72 142 0
-142 1 -143 388 0 387 0 179 405 c98 223 177 407 175 409 -26 22 -366 203
-371 198 -3 -4 -93 -198 -200 -432 l-193 -425 -3 603 -2 602 -180 0 -180 0 0
-230z"/>
<path d="M7918 9678 l-3 -403 -159 305 c-87 168 -159 306 -161 308 -2 3 -345
-165 -353 -173 -2 -1 13 -35 32 -74 l36 -71 -75 0 -75 0 0 -255 0 -255 110 0
110 0 2 185 3 185 96 -183 97 -182 336 -3 336 -2 0 510 0 510 -165 0 -165 0
-2 -402z"/>
<path d="M5110 9455 l0 -395 135 0 135 0 0 395 0 395 -135 0 -135 0 0 -395z"/>
<path d="M1642 8814 c5 -21 4372 -8813 4378 -8814 3 0 83 222 178 492 95 271
619 1768 1164 3326 l993 2832 342 0 343 0 0 55 0 55 -870 0 -870 0 0 -55 0
-55 356 0 c281 0 355 -3 352 -12 -3 -7 -367 -1047 -809 -2310 -442 -1264 -806
-2298 -809 -2298 -6 0 -1842 4728 -1844 4748 -1 8 846 417 2094 1012 1152 549
2102 1003 2110 1008 17 11 -1622 19 -4933 26 -1879 4 -2178 3 -2175 -10z"/>
</g>
</svg>
